<mxfile host="65bd71144e">
    <diagram name="Page-1" id="CyW6aP-Xm8CD-qENMy1q">
        <mxGraphModel dx="2170" dy="1124" grid="1" gridSize="10" guides="1" tooltips="1" connect="1" arrows="1" fold="1" page="1" pageScale="1" pageWidth="827" pageHeight="1169" math="0" shadow="0">
            <root>
                <mxCell id="0"/>
                <mxCell id="1" parent="0"/>
                <mxCell id="AitDJzuSQbWM-zjhd547-20" value="utilisateurs" style="swimlane;fontStyle=0;childLayout=stackLayout;horizontal=1;startSize=26;fillColor=none;horizontalStack=0;resizeParent=1;resizeParentMax=0;resizeLast=0;collapsible=1;marginBottom=0;whiteSpace=wrap;html=1;" parent="1" vertex="1">
                    <mxGeometry x="160" y="361" width="140" height="156" as="geometry"/>
                </mxCell>
                <mxCell id="AitDJzuSQbWM-zjhd547-21" value="&lt;u&gt;id_utilisateur : int&lt;/u&gt;" style="text;strokeColor=none;fillColor=none;align=left;verticalAlign=top;spacingLeft=4;spacingRight=4;overflow=hidden;rotatable=0;points=[[0,0.5],[1,0.5]];portConstraint=eastwest;whiteSpace=wrap;html=1;" parent="AitDJzuSQbWM-zjhd547-20" vertex="1">
                    <mxGeometry y="26" width="140" height="26" as="geometry"/>
                </mxCell>
                <mxCell id="AitDJzuSQbWM-zjhd547-22" value="nom_utilisateur : string" style="text;strokeColor=none;fillColor=none;align=left;verticalAlign=top;spacingLeft=4;spacingRight=4;overflow=hidden;rotatable=0;points=[[0,0.5],[1,0.5]];portConstraint=eastwest;whiteSpace=wrap;html=1;" parent="AitDJzuSQbWM-zjhd547-20" vertex="1">
                    <mxGeometry y="52" width="140" height="26" as="geometry"/>
                </mxCell>
                <mxCell id="AitDJzuSQbWM-zjhd547-77" value="mot_de_pass : string" style="text;strokeColor=none;fillColor=none;align=left;verticalAlign=top;spacingLeft=4;spacingRight=4;overflow=hidden;rotatable=0;points=[[0,0.5],[1,0.5]];portConstraint=eastwest;whiteSpace=wrap;html=1;" parent="AitDJzuSQbWM-zjhd547-20" vertex="1">
                    <mxGeometry y="78" width="140" height="26" as="geometry"/>
                </mxCell>
                <mxCell id="AitDJzuSQbWM-zjhd547-23" value="mot_de_pass : string" style="text;strokeColor=none;fillColor=none;align=left;verticalAlign=top;spacingLeft=4;spacingRight=4;overflow=hidden;rotatable=0;points=[[0,0.5],[1,0.5]];portConstraint=eastwest;whiteSpace=wrap;html=1;" parent="AitDJzuSQbWM-zjhd547-20" vertex="1">
                    <mxGeometry y="104" width="140" height="26" as="geometry"/>
                </mxCell>
                <mxCell id="AitDJzuSQbWM-zjhd547-24" value="email : string" style="text;strokeColor=none;fillColor=none;align=left;verticalAlign=top;spacingLeft=4;spacingRight=4;overflow=hidden;rotatable=0;points=[[0,0.5],[1,0.5]];portConstraint=eastwest;whiteSpace=wrap;html=1;" parent="AitDJzuSQbWM-zjhd547-20" vertex="1">
                    <mxGeometry y="130" width="140" height="26" as="geometry"/>
                </mxCell>
                <mxCell id="AitDJzuSQbWM-zjhd547-25" value="categorie" style="swimlane;fontStyle=0;childLayout=stackLayout;horizontal=1;startSize=26;fillColor=none;horizontalStack=0;resizeParent=1;resizeParentMax=0;resizeLast=0;collapsible=1;marginBottom=0;whiteSpace=wrap;html=1;" parent="1" vertex="1">
                    <mxGeometry x="580" y="280" width="140" height="78" as="geometry"/>
                </mxCell>
                <mxCell id="AitDJzuSQbWM-zjhd547-27" value="nom_categorie : string" style="text;strokeColor=none;fillColor=none;align=left;verticalAlign=top;spacingLeft=4;spacingRight=4;overflow=hidden;rotatable=0;points=[[0,0.5],[1,0.5]];portConstraint=eastwest;whiteSpace=wrap;html=1;" parent="AitDJzuSQbWM-zjhd547-25" vertex="1">
                    <mxGeometry y="26" width="140" height="26" as="geometry"/>
                </mxCell>
                <mxCell id="AitDJzuSQbWM-zjhd547-26" value="&lt;u&gt;id_categorie : int&lt;/u&gt;" style="text;strokeColor=none;fillColor=none;align=left;verticalAlign=top;spacingLeft=4;spacingRight=4;overflow=hidden;rotatable=0;points=[[0,0.5],[1,0.5]];portConstraint=eastwest;whiteSpace=wrap;html=1;" parent="AitDJzuSQbWM-zjhd547-25" vertex="1">
                    <mxGeometry y="52" width="140" height="26" as="geometry"/>
                </mxCell>
                <mxCell id="AitDJzuSQbWM-zjhd547-34" value="sous-categorie" style="swimlane;fontStyle=0;childLayout=stackLayout;horizontal=1;startSize=26;fillColor=none;horizontalStack=0;resizeParent=1;resizeParentMax=0;resizeLast=0;collapsible=1;marginBottom=0;whiteSpace=wrap;html=1;" parent="1" vertex="1">
                    <mxGeometry x="540" y="517" width="180" height="104" as="geometry"/>
                </mxCell>
                <mxCell id="AitDJzuSQbWM-zjhd547-35" value="&lt;u&gt;id_sous_categorie : int&lt;/u&gt;" style="text;strokeColor=none;fillColor=none;align=left;verticalAlign=top;spacingLeft=4;spacingRight=4;overflow=hidden;rotatable=0;points=[[0,0.5],[1,0.5]];portConstraint=eastwest;whiteSpace=wrap;html=1;" parent="AitDJzuSQbWM-zjhd547-34" vertex="1">
                    <mxGeometry y="26" width="180" height="26" as="geometry"/>
                </mxCell>
                <mxCell id="AitDJzuSQbWM-zjhd547-36" value="nom_sous_categorie : string" style="text;strokeColor=none;fillColor=none;align=left;verticalAlign=top;spacingLeft=4;spacingRight=4;overflow=hidden;rotatable=0;points=[[0,0.5],[1,0.5]];portConstraint=eastwest;whiteSpace=wrap;html=1;" parent="AitDJzuSQbWM-zjhd547-34" vertex="1">
                    <mxGeometry y="52" width="180" height="26" as="geometry"/>
                </mxCell>
                <mxCell id="AitDJzuSQbWM-zjhd547-39" value="id_categorie : int" style="text;strokeColor=none;fillColor=none;align=left;verticalAlign=top;spacingLeft=4;spacingRight=4;overflow=hidden;rotatable=0;points=[[0,0.5],[1,0.5]];portConstraint=eastwest;whiteSpace=wrap;html=1;" parent="AitDJzuSQbWM-zjhd547-34" vertex="1">
                    <mxGeometry y="78" width="180" height="26" as="geometry"/>
                </mxCell>
                <mxCell id="AitDJzuSQbWM-zjhd547-40" value="projets" style="swimlane;fontStyle=0;childLayout=stackLayout;horizontal=1;startSize=26;fillColor=none;horizontalStack=0;resizeParent=1;resizeParentMax=0;resizeLast=0;collapsible=1;marginBottom=0;whiteSpace=wrap;html=1;" parent="1" vertex="1">
                    <mxGeometry x="540" y="660" width="180" height="208" as="geometry"/>
                </mxCell>
                <mxCell id="AitDJzuSQbWM-zjhd547-41" value="&lt;u&gt;id_projet : int&lt;/u&gt;" style="text;strokeColor=none;fillColor=none;align=left;verticalAlign=top;spacingLeft=4;spacingRight=4;overflow=hidden;rotatable=0;points=[[0,0.5],[1,0.5]];portConstraint=eastwest;whiteSpace=wrap;html=1;" parent="AitDJzuSQbWM-zjhd547-40" vertex="1">
                    <mxGeometry y="26" width="180" height="26" as="geometry"/>
                </mxCell>
                <mxCell id="AitDJzuSQbWM-zjhd547-42" value="titre_projet : string" style="text;strokeColor=none;fillColor=none;align=left;verticalAlign=top;spacingLeft=4;spacingRight=4;overflow=hidden;rotatable=0;points=[[0,0.5],[1,0.5]];portConstraint=eastwest;whiteSpace=wrap;html=1;" parent="AitDJzuSQbWM-zjhd547-40" vertex="1">
                    <mxGeometry y="52" width="180" height="26" as="geometry"/>
                </mxCell>
                <mxCell id="AitDJzuSQbWM-zjhd547-43" value="description : string" style="text;strokeColor=none;fillColor=none;align=left;verticalAlign=top;spacingLeft=4;spacingRight=4;overflow=hidden;rotatable=0;points=[[0,0.5],[1,0.5]];portConstraint=eastwest;whiteSpace=wrap;html=1;" parent="AitDJzuSQbWM-zjhd547-40" vertex="1">
                    <mxGeometry y="78" width="180" height="26" as="geometry"/>
                </mxCell>
                <mxCell id="AitDJzuSQbWM-zjhd547-45" value="&amp;lt;&amp;lt;FK&amp;gt;&amp;gt;" style="text;strokeColor=none;fillColor=none;align=center;verticalAlign=top;spacingLeft=4;spacingRight=4;overflow=hidden;rotatable=0;points=[[0,0.5],[1,0.5]];portConstraint=eastwest;whiteSpace=wrap;html=1;" parent="AitDJzuSQbWM-zjhd547-40" vertex="1">
                    <mxGeometry y="104" width="180" height="26" as="geometry"/>
                </mxCell>
                <mxCell id="AitDJzuSQbWM-zjhd547-44" value="id_categorie : int" style="text;strokeColor=none;fillColor=none;align=left;verticalAlign=top;spacingLeft=4;spacingRight=4;overflow=hidden;rotatable=0;points=[[0,0.5],[1,0.5]];portConstraint=eastwest;whiteSpace=wrap;html=1;" parent="AitDJzuSQbWM-zjhd547-40" vertex="1">
                    <mxGeometry y="130" width="180" height="26" as="geometry"/>
                </mxCell>
                <mxCell id="AitDJzuSQbWM-zjhd547-46" value="id_sous_categorie : int" style="text;strokeColor=none;fillColor=none;align=left;verticalAlign=top;spacingLeft=4;spacingRight=4;overflow=hidden;rotatable=0;points=[[0,0.5],[1,0.5]];portConstraint=eastwest;whiteSpace=wrap;html=1;" parent="AitDJzuSQbWM-zjhd547-40" vertex="1">
                    <mxGeometry y="156" width="180" height="26" as="geometry"/>
                </mxCell>
                <mxCell id="AitDJzuSQbWM-zjhd547-47" value="id_utilisateur : int" style="text;strokeColor=none;fillColor=none;align=left;verticalAlign=top;spacingLeft=4;spacingRight=4;overflow=hidden;rotatable=0;points=[[0,0.5],[1,0.5]];portConstraint=eastwest;whiteSpace=wrap;html=1;" parent="AitDJzuSQbWM-zjhd547-40" vertex="1">
                    <mxGeometry y="182" width="180" height="26" as="geometry"/>
                </mxCell>
                <mxCell id="AitDJzuSQbWM-zjhd547-48" value="freelances" style="swimlane;fontStyle=0;childLayout=stackLayout;horizontal=1;startSize=26;fillColor=none;horizontalStack=0;resizeParent=1;resizeParentMax=0;resizeLast=0;collapsible=1;marginBottom=0;whiteSpace=wrap;html=1;" parent="1" vertex="1">
                    <mxGeometry x="190" y="544" width="140" height="156" as="geometry"/>
                </mxCell>
                <mxCell id="AitDJzuSQbWM-zjhd547-49" value="&lt;u&gt;id_freelance : int&lt;/u&gt;" style="text;strokeColor=none;fillColor=none;align=left;verticalAlign=top;spacingLeft=4;spacingRight=4;overflow=hidden;rotatable=0;points=[[0,0.5],[1,0.5]];portConstraint=eastwest;whiteSpace=wrap;html=1;" parent="AitDJzuSQbWM-zjhd547-48" vertex="1">
                    <mxGeometry y="26" width="140" height="26" as="geometry"/>
                </mxCell>
                <mxCell id="AitDJzuSQbWM-zjhd547-50" value="nom_freelance : string" style="text;strokeColor=none;fillColor=none;align=left;verticalAlign=top;spacingLeft=4;spacingRight=4;overflow=hidden;rotatable=0;points=[[0,0.5],[1,0.5]];portConstraint=eastwest;whiteSpace=wrap;html=1;" parent="AitDJzuSQbWM-zjhd547-48" vertex="1">
                    <mxGeometry y="52" width="140" height="26" as="geometry"/>
                </mxCell>
                <mxCell id="AitDJzuSQbWM-zjhd547-51" value="competences : string" style="text;strokeColor=none;fillColor=none;align=left;verticalAlign=top;spacingLeft=4;spacingRight=4;overflow=hidden;rotatable=0;points=[[0,0.5],[1,0.5]];portConstraint=eastwest;whiteSpace=wrap;html=1;" parent="AitDJzuSQbWM-zjhd547-48" vertex="1">
                    <mxGeometry y="78" width="140" height="26" as="geometry"/>
                </mxCell>
                <mxCell id="AitDJzuSQbWM-zjhd547-52" value="&amp;lt;&amp;lt;FK&amp;gt;&amp;gt;" style="text;strokeColor=none;fillColor=none;align=center;verticalAlign=top;spacingLeft=4;spacingRight=4;overflow=hidden;rotatable=0;points=[[0,0.5],[1,0.5]];portConstraint=eastwest;whiteSpace=wrap;html=1;" parent="AitDJzuSQbWM-zjhd547-48" vertex="1">
                    <mxGeometry y="104" width="140" height="26" as="geometry"/>
                </mxCell>
                <mxCell id="AitDJzuSQbWM-zjhd547-53" value="id_utilisateur : int" style="text;strokeColor=none;fillColor=none;align=left;verticalAlign=top;spacingLeft=4;spacingRight=4;overflow=hidden;rotatable=0;points=[[0,0.5],[1,0.5]];portConstraint=eastwest;whiteSpace=wrap;html=1;" parent="AitDJzuSQbWM-zjhd547-48" vertex="1">
                    <mxGeometry y="130" width="140" height="26" as="geometry"/>
                </mxCell>
                <mxCell id="AitDJzuSQbWM-zjhd547-55" value="Offres" style="swimlane;fontStyle=0;childLayout=stackLayout;horizontal=1;startSize=26;fillColor=none;horizontalStack=0;resizeParent=1;resizeParentMax=0;resizeLast=0;collapsible=1;marginBottom=0;whiteSpace=wrap;html=1;" parent="1" vertex="1">
                    <mxGeometry x="190" y="800" width="140" height="182" as="geometry"/>
                </mxCell>
                <mxCell id="AitDJzuSQbWM-zjhd547-56" value="&lt;u&gt;id_offre : int&lt;/u&gt;" style="text;strokeColor=none;fillColor=none;align=left;verticalAlign=top;spacingLeft=4;spacingRight=4;overflow=hidden;rotatable=0;points=[[0,0.5],[1,0.5]];portConstraint=eastwest;whiteSpace=wrap;html=1;" parent="AitDJzuSQbWM-zjhd547-55" vertex="1">
                    <mxGeometry y="26" width="140" height="26" as="geometry"/>
                </mxCell>
                <mxCell id="AitDJzuSQbWM-zjhd547-57" value="montant : int" style="text;strokeColor=none;fillColor=none;align=left;verticalAlign=top;spacingLeft=4;spacingRight=4;overflow=hidden;rotatable=0;points=[[0,0.5],[1,0.5]];portConstraint=eastwest;whiteSpace=wrap;html=1;" parent="AitDJzuSQbWM-zjhd547-55" vertex="1">
                    <mxGeometry y="52" width="140" height="26" as="geometry"/>
                </mxCell>
                <mxCell id="AitDJzuSQbWM-zjhd547-58" value="delai : date" style="text;strokeColor=none;fillColor=none;align=left;verticalAlign=top;spacingLeft=4;spacingRight=4;overflow=hidden;rotatable=0;points=[[0,0.5],[1,0.5]];portConstraint=eastwest;whiteSpace=wrap;html=1;" parent="AitDJzuSQbWM-zjhd547-55" vertex="1">
                    <mxGeometry y="78" width="140" height="26" as="geometry"/>
                </mxCell>
                <mxCell id="AitDJzuSQbWM-zjhd547-59" value="&amp;lt;&amp;lt;FK&amp;gt;&amp;gt;" style="text;strokeColor=none;fillColor=none;align=center;verticalAlign=top;spacingLeft=4;spacingRight=4;overflow=hidden;rotatable=0;points=[[0,0.5],[1,0.5]];portConstraint=eastwest;whiteSpace=wrap;html=1;" parent="AitDJzuSQbWM-zjhd547-55" vertex="1">
                    <mxGeometry y="104" width="140" height="26" as="geometry"/>
                </mxCell>
                <mxCell id="AitDJzuSQbWM-zjhd547-60" value="id_freelance : int" style="text;strokeColor=none;fillColor=none;align=left;verticalAlign=top;spacingLeft=4;spacingRight=4;overflow=hidden;rotatable=0;points=[[0,0.5],[1,0.5]];portConstraint=eastwest;whiteSpace=wrap;html=1;" parent="AitDJzuSQbWM-zjhd547-55" vertex="1">
                    <mxGeometry y="130" width="140" height="26" as="geometry"/>
                </mxCell>
                <mxCell id="AitDJzuSQbWM-zjhd547-61" value="id_projet : int" style="text;strokeColor=none;fillColor=none;align=left;verticalAlign=top;spacingLeft=4;spacingRight=4;overflow=hidden;rotatable=0;points=[[0,0.5],[1,0.5]];portConstraint=eastwest;whiteSpace=wrap;html=1;" parent="AitDJzuSQbWM-zjhd547-55" vertex="1">
                    <mxGeometry y="156" width="140" height="26" as="geometry"/>
                </mxCell>
                <mxCell id="AitDJzuSQbWM-zjhd547-62" value="Temoignage" style="swimlane;fontStyle=0;childLayout=stackLayout;horizontal=1;startSize=26;fillColor=none;horizontalStack=0;resizeParent=1;resizeParentMax=0;resizeLast=0;collapsible=1;marginBottom=0;whiteSpace=wrap;html=1;" parent="1" vertex="1">
                    <mxGeometry x="560" y="920" width="140" height="130" as="geometry"/>
                </mxCell>
                <mxCell id="AitDJzuSQbWM-zjhd547-63" value="&lt;u&gt;id_temoignage : int&lt;/u&gt;" style="text;strokeColor=none;fillColor=none;align=left;verticalAlign=top;spacingLeft=4;spacingRight=4;overflow=hidden;rotatable=0;points=[[0,0.5],[1,0.5]];portConstraint=eastwest;whiteSpace=wrap;html=1;" parent="AitDJzuSQbWM-zjhd547-62" vertex="1">
                    <mxGeometry y="26" width="140" height="26" as="geometry"/>
                </mxCell>
                <mxCell id="AitDJzuSQbWM-zjhd547-64" value="commentaire : string" style="text;strokeColor=none;fillColor=none;align=left;verticalAlign=top;spacingLeft=4;spacingRight=4;overflow=hidden;rotatable=0;points=[[0,0.5],[1,0.5]];portConstraint=eastwest;whiteSpace=wrap;html=1;" parent="AitDJzuSQbWM-zjhd547-62" vertex="1">
                    <mxGeometry y="52" width="140" height="26" as="geometry"/>
                </mxCell>
                <mxCell id="AitDJzuSQbWM-zjhd547-66" value="&amp;lt;&amp;lt;FK&amp;gt;&amp;gt;" style="text;strokeColor=none;fillColor=none;align=center;verticalAlign=top;spacingLeft=4;spacingRight=4;overflow=hidden;rotatable=0;points=[[0,0.5],[1,0.5]];portConstraint=eastwest;whiteSpace=wrap;html=1;" parent="AitDJzuSQbWM-zjhd547-62" vertex="1">
                    <mxGeometry y="78" width="140" height="26" as="geometry"/>
                </mxCell>
                <mxCell id="AitDJzuSQbWM-zjhd547-67" value="id_utilisateur : int" style="text;strokeColor=none;fillColor=none;align=left;verticalAlign=top;spacingLeft=4;spacingRight=4;overflow=hidden;rotatable=0;points=[[0,0.5],[1,0.5]];portConstraint=eastwest;whiteSpace=wrap;html=1;" parent="AitDJzuSQbWM-zjhd547-62" vertex="1">
                    <mxGeometry y="104" width="140" height="26" as="geometry"/>
                </mxCell>
                <mxCell id="AitDJzuSQbWM-zjhd547-68" value="1" style="endArrow=open;html=1;endSize=12;startArrow=diamondThin;startSize=14;startFill=0;edgeStyle=orthogonalEdgeStyle;align=left;verticalAlign=bottom;rounded=0;entryX=0.461;entryY=0.019;entryDx=0;entryDy=0;entryPerimeter=0;" parent="1" target="AitDJzuSQbWM-zjhd547-34" edge="1">
                    <mxGeometry x="-1" y="3" relative="1" as="geometry">
                        <mxPoint x="660" y="360" as="sourcePoint"/>
                        <mxPoint x="800" y="390" as="targetPoint"/>
                        <Array as="points">
                            <mxPoint x="660" y="390"/>
                            <mxPoint x="660" y="457"/>
                            <mxPoint x="663" y="457"/>
                        </Array>
                    </mxGeometry>
                </mxCell>
                <mxCell id="AitDJzuSQbWM-zjhd547-78" value="1" style="endArrow=open;html=1;endSize=12;startArrow=diamondThin;startSize=14;startFill=0;edgeStyle=orthogonalEdgeStyle;align=left;verticalAlign=bottom;rounded=0;exitX=0;exitY=0.5;exitDx=0;exitDy=0;entryX=0;entryY=0.5;entryDx=0;entryDy=0;" parent="1" source="AitDJzuSQbWM-zjhd547-49" target="AitDJzuSQbWM-zjhd547-60" edge="1">
                    <mxGeometry x="-1" y="3" relative="1" as="geometry">
                        <mxPoint x="20" y="780" as="sourcePoint"/>
                        <mxPoint x="180" y="780" as="targetPoint"/>
                        <Array as="points">
                            <mxPoint x="120" y="583"/>
                            <mxPoint x="120" y="943"/>
                        </Array>
                    </mxGeometry>
                </mxCell>
                <mxCell id="AitDJzuSQbWM-zjhd547-80" value="1" style="endArrow=open;html=1;endSize=12;startArrow=diamondThin;startSize=14;startFill=0;edgeStyle=orthogonalEdgeStyle;align=left;verticalAlign=bottom;rounded=0;entryX=1;entryY=0.5;entryDx=0;entryDy=0;exitX=0;exitY=0.5;exitDx=0;exitDy=0;" parent="1" source="AitDJzuSQbWM-zjhd547-41" target="AitDJzuSQbWM-zjhd547-61" edge="1">
                    <mxGeometry x="-1" y="3" relative="1" as="geometry">
                        <mxPoint x="410" y="710" as="sourcePoint"/>
                        <mxPoint x="550" y="940" as="targetPoint"/>
                        <Array as="points">
                            <mxPoint x="385" y="699"/>
                            <mxPoint x="385" y="969"/>
                        </Array>
                    </mxGeometry>
                </mxCell>
                <mxCell id="AitDJzuSQbWM-zjhd547-87" value="1" style="endArrow=open;html=1;endSize=12;startArrow=diamondThin;startSize=14;startFill=0;edgeStyle=orthogonalEdgeStyle;align=left;verticalAlign=bottom;rounded=0;entryX=-0.007;entryY=0.638;entryDx=0;entryDy=0;entryPerimeter=0;" parent="1" target="AitDJzuSQbWM-zjhd547-67" edge="1">
                    <mxGeometry x="-1" y="3" relative="1" as="geometry">
                        <mxPoint x="300" y="427" as="sourcePoint"/>
                        <mxPoint x="439.9999999999999" y="1155" as="targetPoint"/>
                        <Array as="points">
                            <mxPoint x="440" y="427"/>
                            <mxPoint x="440" y="1040"/>
                            <mxPoint x="520" y="1040"/>
                        </Array>
                    </mxGeometry>
                </mxCell>
                <mxCell id="AitDJzuSQbWM-zjhd547-88" value="1" style="endArrow=open;html=1;endSize=12;startArrow=diamondThin;startSize=14;startFill=0;edgeStyle=orthogonalEdgeStyle;align=left;verticalAlign=bottom;rounded=0;exitX=0;exitY=0.5;exitDx=0;exitDy=0;" parent="1" source="AitDJzuSQbWM-zjhd547-26" edge="1" target="AitDJzuSQbWM-zjhd547-44">
                    <mxGeometry x="-1" y="3" relative="1" as="geometry">
                        <mxPoint x="450" y="940" as="sourcePoint"/>
                        <mxPoint x="510" y="790" as="targetPoint"/>
                        <Array as="points">
                            <mxPoint x="560" y="345"/>
                            <mxPoint x="560" y="400"/>
                            <mxPoint x="460" y="400"/>
                            <mxPoint x="460" y="803"/>
                        </Array>
                    </mxGeometry>
                </mxCell>
                <mxCell id="AitDJzuSQbWM-zjhd547-89" value="1" style="endArrow=open;html=1;endSize=12;startArrow=diamondThin;startSize=14;startFill=0;edgeStyle=orthogonalEdgeStyle;align=left;verticalAlign=bottom;rounded=0;" parent="1" edge="1">
                    <mxGeometry x="-1" y="3" relative="1" as="geometry">
                        <mxPoint x="541" y="556" as="sourcePoint"/>
                        <mxPoint x="540" y="829" as="targetPoint"/>
                        <Array as="points">
                            <mxPoint x="470" y="556"/>
                            <mxPoint x="470" y="830"/>
                            <mxPoint x="540" y="830"/>
                        </Array>
                    </mxGeometry>
                </mxCell>
                <mxCell id="AitDJzuSQbWM-zjhd547-90" value="1" style="endArrow=open;html=1;endSize=12;startArrow=diamondThin;startSize=14;startFill=0;edgeStyle=orthogonalEdgeStyle;align=left;verticalAlign=bottom;rounded=0;exitX=1;exitY=0.5;exitDx=0;exitDy=0;entryX=0;entryY=0.308;entryDx=0;entryDy=0;entryPerimeter=0;" parent="1" edge="1">
                    <mxGeometry x="-1" y="3" relative="1" as="geometry">
                        <mxPoint x="300" y="406" as="sourcePoint"/>
                        <mxPoint x="540.0000000000001" y="856.008" as="targetPoint"/>
                        <Array as="points">
                            <mxPoint x="450" y="406"/>
                            <mxPoint x="450" y="856"/>
                        </Array>
                    </mxGeometry>
                </mxCell>
            </root>
        </mxGraphModel>
    </diagram>
</mxfile>